<?xml version="1.0" encoding="UTF-8" standalone="no"?>
<svg
   xmlns:dc="http://purl.org/dc/elements/1.1/"
   xmlns:cc="http://creativecommons.org/ns#"
   xmlns:rdf="http://www.w3.org/1999/02/22-rdf-syntax-ns#"
   xmlns:svg="http://www.w3.org/2000/svg"
   xmlns="http://www.w3.org/2000/svg"
   xmlns:sodipodi="http://sodipodi.sourceforge.net/DTD/sodipodi-0.dtd"
   xmlns:inkscape="http://www.inkscape.org/namespaces/inkscape"
   version="1.1"
   id="Layer_2"
   x="0px"
   y="0px"
   width="400px"
   height="400px"
   viewBox="0 0 400 400"
   enable-background="new 0 0 400 400"
   xml:space="preserve"
   sodipodi:docname="vegan_unknown.svg"
   inkscape:version="1.0.1 (3bc2e813f5, 2020-09-07)"><metadata
   id="metadata970"><rdf:RDF><cc:Work
       rdf:about=""><dc:format>image/svg+xml</dc:format><dc:type
         rdf:resource="http://purl.org/dc/dcmitype/StillImage" /><dc:title /></cc:Work></rdf:RDF></metadata><defs
   id="defs968" /><sodipodi:namedview
   pagecolor="#ffffff"
   bordercolor="#666666"
   borderopacity="1"
   objecttolerance="10"
   gridtolerance="10"
   guidetolerance="10"
   inkscape:pageopacity="0"
   inkscape:pageshadow="2"
   inkscape:window-width="1916"
   inkscape:window-height="1062"
   id="namedview966"
   showgrid="false"
   inkscape:zoom="1.120976"
   inkscape:cx="259.70656"
   inkscape:cy="217.75692"
   inkscape:window-x="0"
   inkscape:window-y="16"
   inkscape:window-maximized="1"
   inkscape:current-layer="Layer_2"
   inkscape:document-rotation="0" />

<g
   id="g1812"
   transform="matrix(1.7027514,0,0,1.7027514,375.66816,-153.9964)"
   style="stroke-width:0.587285"><circle
     fill="#ffffff"
     cx="-103.16724"
     cy="207.8967"
     r="99.100998"
     id="circle1211"
     style="fill:#483e37;stroke-width:0.58728481;font-variation-settings:normal;opacity:1;vector-effect:none;fill-opacity:1;stroke-linecap:butt;stroke-linejoin:miter;stroke-miterlimit:4;stroke-dasharray:none;stroke-dashoffset:0;stroke-opacity:1;stop-color:#000000;stop-opacity:1" /><path
     d="m -77.910243,292.6267 c 0,2.485 -2.462,4.5 -5.5,4.5 -3.038,0 -5.5,-2.015 -5.5,-4.5 v -90 c 0,-3.083 -1.75,-9.5 -5.25,-11.5 -3.5,-2 -3.25,-6.75 -3.25,-6.75 v -53.5 c 0,-11.75 19.5,-9 19.5,-9 z"
     id="path1213"
     style="fill:#ffffff;stroke-width:0.587285" /><path
     d="m -115.91025,293.8767 c 0,2.485 -2.462,4.5 -5.5,4.5 -3.038,0 -5.5,-2.015 -5.5,-4.5 v -112.5 c -8.917,-8.75 -10.672,-15.225 -9.417,-26 1.486,-12.752 5.635,-33.78 5.635,-33.78 h 1.313 0.052 v 39.53 h 2.417 l 1.917,-39.53 h 1.667 l 0.833,39.53 h 2.583 l 0.833,-39.53 h 1.667 l 1.917,39.53 h 2.417 v -39.53 h 0.052 1.313 c 0,0 4.149,21.028 5.635,33.78 1.256,10.775 -0.5,17.25 -9.417,26 v 112.5"
     id="path1215"
     style="fill:#ffffff;stroke-width:0.587285" /></g><text
   xml:space="preserve"
   style="font-style:normal;font-variant:normal;font-weight:bold;font-stretch:normal;font-size:354.436px;line-height:125%;font-family:'Nimbus Sans';-inkscape-font-specification:'Nimbus Sans Bold';letter-spacing:0px;word-spacing:0px;fill:#ddff55;fill-opacity:1;stroke:#000000;stroke-width:4.0252;stroke-linecap:butt;stroke-linejoin:miter;stroke-miterlimit:4;stroke-dasharray:none;stroke-opacity:1"
   x="157.38054"
   y="346.03113"
   id="text974"
   transform="scale(1.0009789,0.99902204)"><tspan
     sodipodi:role="line"
     id="tspan972"
     x="157.38054"
     y="346.03113"
     style="fill:#ddff55;stroke:#000000;stroke-width:4.0252;stroke-miterlimit:4;stroke-dasharray:none;stroke-opacity:1">?</tspan></text></svg>
