<?xml version="1.0" encoding="UTF-8" standalone="no"?>
<svg
   xmlns:dc="http://purl.org/dc/elements/1.1/"
   xmlns:cc="http://creativecommons.org/ns#"
   xmlns:rdf="http://www.w3.org/1999/02/22-rdf-syntax-ns#"
   xmlns:svg="http://www.w3.org/2000/svg"
   xmlns="http://www.w3.org/2000/svg"
   xmlns:sodipodi="http://sodipodi.sourceforge.net/DTD/sodipodi-0.dtd"
   xmlns:inkscape="http://www.inkscape.org/namespaces/inkscape"
   version="1.1"
   id="Layer_2"
   x="0px"
   y="0px"
   width="400px"
   height="400px"
   viewBox="0 0 400 400"
   enable-background="new 0 0 400 400"
   xml:space="preserve"
   sodipodi:docname="vegan_only_vegetarian.svg"
   inkscape:version="1.0.1 (3bc2e813f5, 2020-09-07)"><metadata
   id="metadata970"><rdf:RDF><cc:Work
       rdf:about=""><dc:format>image/svg+xml</dc:format><dc:type
         rdf:resource="http://purl.org/dc/dcmitype/StillImage" /><dc:title></dc:title></cc:Work></rdf:RDF></metadata><defs
   id="defs968" /><sodipodi:namedview
   pagecolor="#ffffff"
   bordercolor="#666666"
   borderopacity="1"
   objecttolerance="10"
   gridtolerance="10"
   guidetolerance="10"
   inkscape:pageopacity="0"
   inkscape:pageshadow="2"
   inkscape:window-width="1916"
   inkscape:window-height="1062"
   id="namedview966"
   showgrid="false"
   inkscape:zoom="1.8120856"
   inkscape:cx="295.8273"
   inkscape:cy="174.61023"
   inkscape:window-x="0"
   inkscape:window-y="16"
   inkscape:window-maximized="1"
   inkscape:current-layer="Layer_2"
   inkscape:document-rotation="0" />

<g
   id="g2121"
   style="stroke-width:0.587285"
   transform="matrix(1.2040271,1.2040271,-1.2040271,1.2040271,574.52941,73.902902)"><g
     id="g1812"
     style="stroke-width:0.587285"><circle
       fill="#ffffff"
       cx="152.40591"
       cy="175.03415"
       r="99.100998"
       id="circle1211"
       style="fill:#008000;stroke-width:0.587285"
       transform="rotate(67.439351)" /><path
       d="m -115.91025,293.8767 c 0,2.485 -2.462,4.5 -5.5,4.5 -3.038,0 -5.5,-2.015 -5.5,-4.5 v -112.5 c -8.917,-8.75 -10.672,-15.225 -9.417,-26 1.486,-12.752 5.635,-33.78 5.635,-33.78 h 1.313 0.052 v 39.53 h 2.417 l 1.917,-39.53 h 1.667 l 0.833,39.53 h 2.583 l 0.833,-39.53 h 1.667 l 1.917,39.53 h 2.417 v -39.53 h 0.052 1.313 c 0,0 4.149,21.028 5.635,33.78 1.256,10.775 -0.5,17.25 -9.417,26 v 112.5"
       id="path1215"
       style="fill:#ffffff;stroke-width:0.587285" /></g><path
     id="circle2097"
     style="fill:#97cd00;stroke-width:1;fill-opacity:1"
     d="M 199.2832,31.257812 A 168.74436,168.74436 0 0 0 31.255859,200 168.74436,168.74436 0 0 0 199.625,368.74219 V 31.257812 a 168.74436,168.74436 0 0 0 -0.3418,0 z"
     transform="matrix(0.58728479,0,0,0.58728479,-220.6242,90.439744)" /></g><path
   d="m 243.00638,344.27412 c 0,4.23134 -4.19217,7.66238 -9.36513,7.66238 -5.17296,0 -9.36513,-3.43104 -9.36513,-7.66238 V 191.0265 c 0,-5.24959 -2.97982,-16.17614 -8.93945,-19.58164 -5.95963,-3.40551 -5.53394,-11.49358 -5.53394,-11.49358 V 68.854084 c 0,-20.007329 33.20365,-15.324762 33.20365,-15.324762 z"
   id="path2099"
   style="fill:#ffffff;stroke-width:1" /><path
   d="m 178.30182,346.40256 c 0,4.23134 -4.19217,7.66238 -9.36513,7.66238 -5.17296,0 -9.36514,-3.43104 -9.36514,-7.66238 V 154.84303 c -15.18343,-14.89907 -18.17176,-25.92439 -16.03481,-44.27154 2.53029,-21.713482 9.59501,-57.518939 9.59501,-57.518939 h 2.23571 0.0885 v 67.309759 h 4.11555 l 3.26418,-67.309759 h 2.83849 l 1.41839,67.309759 h 4.3982 l 1.4184,-67.309759 h 2.83848 l 3.26418,67.309759 h 4.11555 V 53.052551 h 0.0885 2.23571 c 0,0 7.06472,35.805457 9.59501,57.518939 2.13865,18.34715 -0.85138,29.37247 -16.03481,44.27154 v 191.55953"
   id="path2101"
   style="fill:#ffffff;stroke-width:1" /></svg>
